<?xml version="1.0" encoding="UTF-8"?>
<!DOCTYPE svg PUBLIC "-//W3C//DTD SVG 1.1//EN" "http://www.w3.org/Graphics/SVG/1.1/DTD/svg11.dtd">
<!-- Creator: CorelDRAW 2020 (64-Bit) -->
<svg xmlns="http://www.w3.org/2000/svg" xml:space="preserve" width="5.2422mm" height="7.0342mm" version="1.1" style="shape-rendering:geometricPrecision; text-rendering:geometricPrecision; image-rendering:optimizeQuality; fill-rule:evenodd; clip-rule:evenodd"
viewBox="0 0 221.46 297.16"
 xmlns:xlink="http://www.w3.org/1999/xlink"
 xmlns:xodm="http://www.corel.com/coreldraw/odm/2003">
 <defs>
  <style type="text/css">
   <![CDATA[
    .fil0 {fill:#003462}
   ]]>
  </style>
 </defs>
 <g id="Layer_x0020_1">
  <metadata id="CorelCorpID_0Corel-Layer"/>
  <path id="Shape" class="fil0" d="M211.66 282.99c0,2.41 -1.96,4.37 -4.37,4.37l-193.12 0c-2.41,0 -4.37,-1.96 -4.37,-4.37l0 -268.82c0,-2.41 1.96,-4.37 4.37,-4.37l151.39 0 0 30.22c0,7.81 6.36,14.17 14.16,14.17l31.94 0c0,76.27 0,152.53 0,228.8zm9.8 -233.66c0,-0.28 -0.02,-0.55 -0.06,-0.82 0,0 -0,0 -0,-0 0,0 0,0 0,-0.01l0 0c0,-0 -0,-0.01 -0,-0.01 -0.02,-0.14 -0.05,-0.27 -0.08,-0.41l0 0c0,0 0.01,-0.01 0,-0.01 0,-0 0,-0.01 -0,-0.01l0 0c-0.22,-0.84 -0.66,-1.61 -1.3,-2.24l0 0c0,0 -0,-0 -0,-0 -0.03,-0 -0.01,-0 -0.01,-0.01 0.01,-0.02 -0,-0 -0,-0 -0.01,-0 0,-0 -0.01,-0.01 0,-0 -0,-0 -0,-0 -0,-0 -0.01,-0 -0.01,-0.01l-46.1 -44.4c0,-0 -0,-0.01 -0.01,-0.01 -0,-0 -0.01,-0 -0.01,-0.01 -0.66,-0.63 -1.47,-1.05 -2.32,-1.23 -0.13,-0.03 -0.25,-0.05 -0.37,-0.07 -0,0 -0,0 -0,0 -0,-0 -0.01,0 -0.02,-0 -0,0 -0.01,-0 -0.01,0 -0,0 -0.01,0 -0.02,0 -0,0 -0.01,-0 -0.02,0 0,0 0,0 -0.02,-0 -0.21,-0.03 -0.46,-0.03 -0.63,-0.04l-156.25 0c-7.81,0 -14.16,6.36 -14.16,14.17l0 268.83c0,7.81 6.35,14.16 14.16,14.16l193.12 0c7.82,0 14.17,-6.36 14.17,-14.16 0,-77.89 0,-155.78 0,-233.67zm-186.92 81.74l156.15 0c2.7,0 4.9,-2.19 4.9,-4.9 0,-2.71 -2.19,-4.9 -4.9,-4.9l-156.15 0c-2.71,0 -4.9,2.19 -4.9,4.9 0,2.71 2.2,4.9 4.9,4.9l0 0zm0 32.66l156.15 0c2.7,0 4.9,-2.19 4.9,-4.9 0,-2.7 -2.19,-4.9 -4.9,-4.9l-156.15 0c-2.71,0 -4.9,2.19 -4.9,4.9 0,2.71 2.2,4.9 4.9,4.9l0 0zm0 -65.31l74.85 0c2.7,0 4.9,-2.19 4.9,-4.9 0,-2.7 -2.19,-4.9 -4.9,-4.9l-74.85 0c-2.71,0 -4.9,2.19 -4.9,4.9 0,2.71 2.2,4.9 4.9,4.9l0 0zm161.05 93.07c0,-2.7 -2.19,-4.9 -4.9,-4.9l-156.15 0c-2.71,0 -4.9,2.19 -4.9,4.9 0,2.71 2.19,4.9 4.9,4.9l156.15 0c2.7,-0 4.9,-2.2 4.9,-4.9l0 0zm-161.05 27.76c-2.71,0 -4.9,2.19 -4.9,4.9 0,2.71 2.19,4.9 4.9,4.9l74.85 0c2.7,0 4.9,-2.19 4.9,-4.9 0,-2.71 -2.19,-4.9 -4.9,-4.9l-74.85 0 0 0z"/>
 </g>
</svg>
