<?xml version="1.0" encoding="utf-8"?>
<svg width="26px" height="26px" viewBox="0 0 26 26" version="1.1" xmlns:xlink="http://www.w3.org/1999/xlink" xmlns="http://www.w3.org/2000/svg">
  <defs>
    <path d="M0 0L26 0L26 26L0 26L0 0Z" id="path_1" />
    <clipPath id="mask_1">
      <use xlink:href="#path_1" />
    </clipPath>
  </defs>
  <g id="gift-box-2012" opacity="0.22">
    <path d="M0 0L26 0L26 26L0 26L0 0Z" id="Background" fill="none" fill-rule="evenodd" stroke="none" />
    <g clip-path="url(#mask_1)">
      <g id="Group" transform="translate(1.4536133 0.19915771)">
        <g id="Group">
          <path d="M21.9859 4.82242L14.3355 4.82242C14.3349 4.80592 14.3338 4.78971 14.3329 4.77321C16.5627 3.98754 18.5616 3.57991 20.4331 3.5344C20.5511 3.53156 20.6549 3.45617 20.6945 3.34467C20.7337 3.23344 20.7002 3.10942 20.61 3.0329L19.196 1.83335L19.6423 0.367263C19.671 0.273393 19.6488 0.171273 19.5845 0.0973144C19.5197 0.0233558 19.4238 -0.0116324 19.3248 0.00344383C16.4276 0.469952 14.1164 1.19759 12.2589 2.22277C12.0311 2.16275 11.793 2.12748 11.5464 2.12748C11.2997 2.12748 11.0616 2.16275 10.8338 2.22306C8.9763 1.19788 6.66509 0.470236 3.76762 0.00401261C3.67176 -0.011348 3.57249 0.0239246 3.5082 0.0978832C3.44363 0.171842 3.42172 0.273677 3.45045 0.367548L3.89677 1.83364L2.48273 3.03319C2.39285 3.10971 2.35928 3.23373 2.39853 3.34495C2.43779 3.45646 2.5419 3.53184 2.65995 3.53468C4.53139 3.57991 6.52998 3.98725 8.76011 4.77292C8.75926 4.78942 8.75812 4.80592 8.75755 4.82242L1.10682 4.82242C0.496376 4.82242 0 5.31879 0 5.92895L0 8.42534C0 9.03578 0.496376 9.53216 1.10682 9.53216L2.60391 9.53216L2.60391 24.2553C2.60391 24.9975 3.20781 25.6011 3.94967 25.6011L10.0072 25.6011L13.0856 25.6011L19.1431 25.6011C19.8852 25.6011 20.4888 24.9975 20.4888 24.2553L20.4888 9.53216L21.9859 9.53216C22.5963 9.53216 23.0927 9.03578 23.0927 8.42534L23.0927 5.92895C23.0927 5.31879 22.5964 4.82242 21.9859 4.82242L21.9859 4.82242ZM13.7245 7.89766L13.7191 9.29377L12.0872 7.66184C12.9255 7.49657 13.6292 6.95554 14.0169 6.22192L15.4036 7.60865L14.0075 7.61405C13.8516 7.61491 13.7251 7.7412 13.7245 7.89766L13.7245 7.89766ZM9.08495 7.61436L7.68884 7.60895L9.07557 6.22223C9.46328 6.95584 10.1673 7.49688 11.0053 7.66215L9.37339 9.29407L9.36799 7.89796C9.3677 7.74122 9.24112 7.61493 9.08495 7.61436L9.08495 7.61436ZM11.5464 7.92523L12.5844 8.96321L10.5084 8.96321L11.5464 7.92523L11.5464 7.92523ZM18.9644 0.641174L18.5972 1.8467C18.5642 1.95536 18.5989 2.07313 18.6856 2.14652L19.692 3.00045C18.0007 3.11993 16.2066 3.51788 14.243 4.202C14.0499 3.47948 13.5754 2.87216 12.9427 2.50493C14.5715 1.67603 16.5488 1.06189 18.9644 0.641174L18.9644 0.641174ZM13.7714 4.92143C13.7714 6.14829 12.7732 7.14644 11.5464 7.14644C10.3195 7.14644 9.32135 6.14829 9.32135 4.92143C9.32135 3.69457 10.3195 2.69641 11.5464 2.69641C12.7732 2.69641 13.7714 3.69457 13.7714 4.92143L13.7714 4.92143ZM3.4007 3.00049L4.4071 2.14656C4.49358 2.07317 4.52828 1.9554 4.49528 1.84674L4.12833 0.64093C6.54394 1.06164 8.52148 1.67578 10.15 2.50497C9.51736 2.87221 9.04289 3.47923 8.84974 4.20175C6.88585 3.51764 5.09207 3.11997 3.4007 3.00049L3.4007 3.00049ZM0.568909 8.42561L0.568909 5.92922C0.568909 5.63282 0.810128 5.3916 1.10682 5.3916L8.7951 5.3916C8.8096 5.47694 8.8281 5.56057 8.85028 5.64306L6.80362 7.68972C6.72227 7.77108 6.6978 7.89283 6.74161 7.99921C6.78541 8.1056 6.88867 8.17501 7.00359 8.17529L8.8005 8.18212L8.80335 8.96352L1.10682 8.96352C0.810128 8.96324 0.568909 8.72202 0.568909 8.42561L0.568909 8.42561ZM3.9497 25.0324C3.52131 25.0324 3.17285 24.6837 3.17285 24.2556L3.17285 9.5321L8.80565 9.5321L8.80736 9.9787C8.80765 10.0936 8.87734 10.1969 8.98344 10.2407C9.01843 10.2552 9.05512 10.262 9.09182 10.262C9.16578 10.262 9.2386 10.233 9.29293 10.1787L9.9395 9.53211L10.0075 9.53211L10.0075 25.0324L3.9497 25.0324L3.9497 25.0324ZM10.576 25.0324L10.576 9.5321L12.5166 9.5321L12.5166 25.0324L10.576 25.0324L10.576 25.0324ZM19.9202 24.2556C19.9202 24.684 19.5715 25.0324 19.1434 25.0324L13.0856 25.0324L13.0856 9.53211L13.1533 9.53211L13.7998 10.1787C13.8542 10.233 13.927 10.262 14.001 10.262C14.0374 10.262 14.0743 10.2552 14.1093 10.2407C14.2154 10.1969 14.2848 10.0936 14.2854 9.9787L14.2871 9.5321L19.9202 9.5321L19.9202 24.2556L19.9202 24.2556ZM22.5238 8.42561C22.5238 8.72202 22.2826 8.96352 21.9859 8.96352L14.2894 8.96352L14.2925 8.18212L16.0894 8.17529C16.204 8.17501 16.3076 8.10531 16.3514 7.99921C16.3949 7.89283 16.3704 7.77079 16.2894 7.68972L14.2424 5.64306C14.2646 5.56057 14.2831 5.47694 14.2976 5.3916L21.9859 5.3916C22.2826 5.3916 22.5238 5.63282 22.5238 5.92922L22.5238 8.42561L22.5238 8.42561Z" id="Shape" fill="#003462" fill-rule="evenodd" stroke="none" />
        </g>
      </g>
    </g>
  </g>
</svg>