<?xml version="1.0" encoding="utf-8"?>
<svg width="16px" height="51px" viewBox="0 0 16 51" version="1.1" xmlns:xlink="http://www.w3.org/1999/xlink" xmlns="http://www.w3.org/2000/svg">
  <g id="Group-14">
    <path d="M0 4C0 1.79086 1.79086 0 4 0C6.20914 0 8 1.79086 8 4C8 6.20914 6.20914 8 4 8C1.79086 8 0 6.20914 0 4Z" transform="translate(3.6845703 0)" id="Ellipse" fill="#003462" fill-rule="evenodd" stroke="none" />
    <path d="M0 4C0 1.79086 1.79086 0 4 0C6.20914 0 8 1.79086 8 4C8 6.20914 6.20914 8 4 8C1.79086 8 0 6.20914 0 4Z" transform="translate(3.6845703 12)" id="Ellipse-6" fill="#003462" fill-rule="evenodd" stroke="none" />
    <path d="M0 4C0 1.79086 1.79086 0 4 0C6.20914 0 8 1.79086 8 4C8 6.20914 6.20914 8 4 8C1.79086 8 0 6.20914 0 4Z" transform="translate(3.6845703 24.200012)" id="Ellipse-7" fill="#003462" fill-rule="evenodd" stroke="none" />
    <path d="M1.68832 15.3692C1.39846 15.3692 1.10822 15.2929 0.844162 15.1407C0.315298 14.8355 0 14.2887 0 13.6783L0 1.69094C0 1.08054 0.315672 0.534099 0.844162 0.2289C1.37265 -0.0763002 2.004 -0.0763002 2.53286 0.2289L12.9138 6.22218C13.4423 6.52738 13.7579 7.0742 13.7579 7.6846C13.7579 8.295 13.4423 8.84181 12.9138 9.14701L12.9138 9.14701L2.53248 15.1407C2.26805 15.2929 1.97819 15.3692 1.68832 15.3692L1.68832 15.3692ZM12.5384 8.50244L12.6719 8.50244L12.5384 8.50244L12.5384 8.50244Z" transform="matrix(-4.371139E-08 1 -1 -4.371139E-08 15.36921 36.999973)" id="Shape" fill="#003462" fill-rule="evenodd" stroke="none" />
  </g>
</svg>