<?xml version="1.0" encoding="utf-8"?>
<svg width="16px" height="54px" viewBox="0 0 16 54" version="1.1" xmlns:xlink="http://www.w3.org/1999/xlink" xmlns="http://www.w3.org/2000/svg">
  <g id="Group-18" transform="translate(1 1)">
    <path d="M0 4C0 1.79083 1.79083 0 4 0C6.2091 0 7.99999 1.79083 7.99999 4C7.99999 6.20917 6.2091 8 4 8C1.79083 8 0 6.20917 0 4Z" transform="translate(2.8789062 0)" id="Ellipse-5" fill="none" fill-rule="evenodd" stroke="#FFFFFF" stroke-width="2" />
    <path d="M0 4C0 1.79083 1.79083 0 4 0C6.2091 0 7.99999 1.79083 7.99999 4C7.99999 6.20917 6.2091 8 4 8C1.79083 8 0 6.20917 0 4Z" transform="translate(2.8789062 12)" id="Ellipse-8" fill="none" fill-rule="evenodd" stroke="#FFFFFF" stroke-width="2" />
    <path d="M0 4C0 1.79083 1.79083 0 4 0C6.2091 0 7.99999 1.79083 7.99999 4C7.99999 6.20917 6.2091 8 4 8C1.79083 8 0 6.20917 0 4Z" transform="translate(2.8789062 24.799988)" id="Ellipse-9" fill="none" fill-rule="evenodd" stroke="#FFFFFF" stroke-width="2" />
    <g id="Group-13" transform="translate(0 35.994385)">
      <path d="M0 1.88602C0 1.56222 0.0682954 1.238 0.204558 0.943043C0.477795 0.352235 0.967282 0 1.5137 0L12.2443 0C12.7906 0 13.2798 0.352644 13.553 0.943043C13.8262 1.53337 13.8262 2.23866 13.553 2.82947L8.18808 14.4262C7.91484 15.0166 7.42535 15.3692 6.87899 15.3692C6.33257 15.3692 5.84308 15.0166 5.56985 14.4262L5.56985 14.4262L0.204558 2.82906C0.0682954 2.53369 0 2.20989 0 1.88602L0 1.88602ZM12.2614 1.71861C12.2614 1.67434 12.2504 1.63645 12.2377 1.60769C12.2156 1.55739 12.1726 1.49719 12.0929 1.49719L1.66447 1.49719C1.58471 1.49719 1.54144 1.55739 1.51967 1.60769C1.49721 1.65799 1.47931 1.73706 1.51967 1.82868L6.73372 13.7614C6.77371 13.8526 6.83456 13.8719 6.87884 13.8719C6.92308 13.8719 6.98393 13.8526 7.02396 13.7614L12.2377 1.82911C12.2549 1.78954 12.2614 1.75256 12.2614 1.71861L12.2614 1.71861ZM12.5397 8.49951L12.5397 8.63305L12.5397 8.49951L12.5397 8.49951Z" id="Shape" fill="#FFFFFF" fill-rule="evenodd" stroke="none" />
    </g>
  </g>
</svg>