<?xml version="1.0" encoding="utf-8"?>
<svg width="27px" height="27px" viewBox="0 0 27 27" version="1.1" xmlns:xlink="http://www.w3.org/1999/xlink" xmlns="http://www.w3.org/2000/svg">
  <path d="M9.0047 26.342C8.18232 26.342 7.41015 25.9403 6.9384 25.2665L0.610409 16.2294C-0.26692 14.976 -0.191889 13.2834 0.792669 12.1127C1.47444 11.3022 2.46993 10.8635 3.53011 10.9111C4.58822 10.958 5.54324 11.4824 6.15087 12.3499L9.2422 16.7647C9.28297 16.8226 9.33998 16.8332 9.37011 16.8341C9.40054 16.8391 9.45814 16.8285 9.50274 16.7738L22.4013 0.871419C22.886 0.274126 23.6292 -0.0496287 24.4005 0.00620133C25.1676 0.0617359 25.8603 0.489766 26.2538 1.15086L26.2538 1.15086C26.7264 1.94548 26.6892 2.94806 26.1587 3.70516L12.8904 22.6549L11.0748 25.2615C10.6043 25.937 9.83152 26.3408 9.00795 26.3417C9.00707 26.342 9.00589 26.342 9.0047 26.342L9.0047 26.342ZM3.37761 12.0894C2.72655 12.0894 2.11862 12.3718 1.6968 12.8734C1.05608 13.6353 1.00734 14.7365 1.57805 15.5515L7.90604 24.5889C8.16067 24.9522 8.56094 25.161 9.00462 25.161C9.00521 25.161 9.0058 25.161 9.00639 25.161C9.45067 25.1605 9.85123 24.951 10.105 24.5865L11.9214 21.9787L15.6684 16.6274L25.1906 3.02814C25.455 2.65092 25.4736 2.1514 25.2382 1.75557L25.2382 1.75557C25.0391 1.42148 24.7026 1.21352 24.3148 1.18516C23.9272 1.15769 23.5639 1.31425 23.319 1.61614L10.4199 17.5185C10.1514 17.8494 9.7502 18.0299 9.32779 18.0154C8.90212 18 8.5181 17.7915 8.27381 17.4426L5.18248 13.0276C4.78724 12.4631 4.16572 12.1219 3.47745 12.0915C3.44407 12.09 3.41069 12.0894 3.37761 12.0894L3.37761 12.0894Z" id="Shape-2" fill="#FFFFFF" fill-rule="evenodd" stroke="none" />
</svg>