<?xml version="1.0" encoding="UTF-8"?>
<!DOCTYPE svg PUBLIC "-//W3C//DTD SVG 1.1//EN" "http://www.w3.org/Graphics/SVG/1.1/DTD/svg11.dtd">
<!-- Creator: CorelDRAW 2020 (64-Bit) -->
<svg xmlns="http://www.w3.org/2000/svg" xml:space="preserve" width="42.441mm" height="6.7062mm" version="1.1" style="shape-rendering:geometricPrecision; text-rendering:geometricPrecision; image-rendering:optimizeQuality; fill-rule:evenodd; clip-rule:evenodd"
viewBox="0 0 858.53 135.66"
 xmlns:xlink="http://www.w3.org/1999/xlink"
 xmlns:xodm="http://www.corel.com/coreldraw/odm/2003">
 <defs>
  <style type="text/css">
   <![CDATA[
    .fil0 {fill:#00A8D0}
    .fil1 {fill:#FEC52E}
   ]]>
  </style>
 </defs>
 <g id="Layer_x0020_1">
  <metadata id="CorelCorpID_0Corel-Layer"/>
  <g id="_2110195778544">
   <path class="fil0" d="M232.85 48.59l-20.25 0c0,-31.17 -3.86,-26.32 14.17,-26.32 24.69,0 19.22,26.32 6.07,26.32zm-38.47 -45.56c-3.04,13.07 0.72,30.66 -1.29,45.28 -1.83,13.35 -0.74,35.29 -0.74,50.9 0,12.33 20.25,9.17 20.25,3.04l0 -34.42 18.22 0c16.17,0 31.39,-13.28 31.39,-29.36 0,-11.88 0.14,-18.34 -10.36,-28.11 -12.17,-11.33 -33.19,-8.33 -52.41,-8.33 -1.59,0 -3.84,0.54 -5.06,1.01z"/>
   <path class="fil0" d="M86.05 106.3l-18.53 -6.78c-13.66,-5.75 -39.92,-20.7 -47.27,-31.69 6.19,-1.44 18.14,-10.77 23.29,-12.15 3.57,6.75 5.83,11.77 10.89,17.46 31.87,35.85 93.27,42.49 117.09,-0.9 2.66,-4.84 1.34,-5.91 -1.2,-9.69 -2.2,-3.26 -3.4,-6.76 -6.31,-8.89 -7.22,30.99 -21.98,49.85 -61.17,39.91 -28.43,-7.22 -45.73,-29.78 -48.17,-59.14 -5.35,1.43 -49.02,28.86 -54.67,30.37 0.52,6.28 10.81,12.3 15.61,15.77 16.58,12 49.49,25.74 70.44,25.74z"/>
   <path class="fil0" d="M308.78 11.14l0 59.73c0,21.77 11.59,36.45 33.41,36.45 5.14,0 5.06,-6.78 5.06,-10.12 0,-13.14 -18.22,-0.94 -18.22,-21.26l0 -31.39c14.07,0 16.2,1.85 16.2,-11.14 0,-8.69 -7.5,-7.09 -16.2,-7.09 0,-22.6 2.16,-24.3 -11.14,-24.3 -7.02,0 -9.11,2.1 -9.11,9.11z"/>
   <path class="fil0" d="M268.28 9.11l0 66.82c0,19.17 17.02,34.9 36.44,30.37 0.84,-1.76 2.02,-4.49 2.02,-7.09 0,-12.94 -5.94,-6.84 -12.57,-10.71 -9.11,-5.31 -6.66,-28.84 -6.66,-40.92 0,-5.25 5.11,-1.7 15.19,-4.05 1.53,-6.58 1.53,-9.62 0,-16.2 -7.06,-1.64 -6.73,-1.01 -15.19,-1.01 0,-23.55 2.61,-24.3 -12.15,-24.3 -4.73,0 -7.08,2.36 -7.08,7.09z"/>
   <path class="fil1" d="M89.09 26.32c-7.14,0 -14,-2.52 -20.25,-3.04 3.09,5.84 6.81,8.53 12,12.3l5.21 3.9c-6.62,0 -10.44,-1.9 -16.2,-2.02 3.86,5.77 9.78,10.49 16.51,13.86 8.84,4.43 13.23,5.37 26.01,5.37l0 -1.01c-8.73,0 -22.18,-3.94 -26.32,-10.12 15.49,1.29 0.71,1.29 16.2,0l0 -2.02c-4.06,-1.08 -15.1,-9 -17.21,-12.15 4.27,0 5.63,0.74 8.19,0.81 3.09,0.09 4.41,-0.81 9.02,-0.81 -2.52,-9.42 -22.27,-12.32 -27.34,-19.24 7.85,0.65 36.66,12.24 44.56,16.19 10.72,5.36 18.61,11.78 22.18,23.38 2.89,9.38 2.23,13.27 0.92,22.16 5.19,-3.33 12.32,-14.77 12.32,-23.26 0,-25.91 -44.83,-38.84 -66.22,-43.11l-23.03 -4.3c-3.91,-1.3 -3.5,-2.29 -6.92,-3.2 6.98,13.2 17.06,18.16 28,24.65 2.05,1.22 1.03,0.51 2.37,1.67z"/>
  </g>
  <g id="_2110195784592">
   <path class="fil1" d="M363.72 12.15l0 85.04c0,5.15 4.64,10.12 11.14,10.12 12.29,0 11.2,-14.93 11.09,-27.39 -0.09,-9.11 1.4,-7.91 6.38,-12.86 3.38,-3.36 6.07,-6.82 9.87,-9.36l25.98 40.84c9.14,15.03 23.63,7.7 23.63,1.68 0,-10.02 -1.4,-9.19 -7.3,-18.01l-18.2 -26.34c-3.27,-4.82 -6.14,-8.1 -8.92,-13.35 0.97,-0.65 29.36,-26.15 29.36,-30.37 0,-6.53 -2.54,-12.15 -10.12,-12.15 -6.63,0 -22.32,17.03 -26.32,22.27 -6.43,8.43 -16.92,16.82 -24.3,25.31 0,-15.53 4.4,-47.58 -11.14,-47.58 -4.97,0 -11.14,3.7 -11.14,12.15z"/>
   <path class="fil1" d="M627.96 90.1c-18.49,0 -18.22,-14.43 -18.22,-27.34 0,-22.75 35.43,-28.29 35.43,6.07 0,10.59 -6.38,21.26 -17.21,21.26zm17.21 -50.62c-9.71,-6.5 -7.17,-10.12 -26.32,-10.12 -40.49,0 -38.33,75.93 0,75.93 15.25,0 13.45,-1.17 25.31,-9.11 0,12.21 1.59,25.31 -18.22,25.31 -5.64,0 -10.35,-1.71 -13.46,-4.76 -6.69,-6.55 -5.37,-8.4 -12.86,-8.4 -16.09,0 -7.6,27.34 22.27,27.34 21.74,0 42.52,-3.15 42.52,-32.4l0 -64.79c0,-6.08 -4.21,-10.13 -9.88,-9.69 -8.18,0.64 -6.97,5.74 -9.36,10.7z"/>
   <path class="fil1" d="M492.3 93.14l-8.1 0c-4.25,0 -16.98,-14.68 5.99,-19.32l17.3 -3.96c0,7.68 0.17,11.69 -2.96,16.28 -1.98,2.91 -7.68,7.01 -12.23,7.01zm-32.4 -43.53c0,6.87 4.85,8.1 10.12,8.1 6.42,0 6.49,-14.17 20.25,-14.17 7.87,0 17.21,-0.99 17.21,11.14 0,3.79 -5.78,3.93 -13.58,5.65 -6.06,1.33 -11.35,2.23 -16.9,3.35 -39.27,7.91 -18.03,67.36 32.51,33.52 13.42,20.05 21.26,4.09 21.26,4.05 0,-9.17 -3.11,-6.87 -3.04,-24.29 0.11,-29.35 2.22,-48.6 -33.4,-48.6 -15.4,0 -34.42,6.59 -34.42,21.26z"/>
   <path class="fil0" d="M761.59 68.84c0,20.51 -11.66,29.16 -17.21,37.46l39.54 0.05c6.57,0.08 9.06,0.21 9.06,-5.12 0,-7.08 -10.26,-2.26 -22.27,-5.06 0,-7.92 -0.06,-6.08 17.21,-6.07 6.96,0 19.24,1.67 19.24,-5.06 0,-10.69 -28.35,3.11 -28.35,-9.11 0,-4.27 4.57,-3.15 9.08,-3.07l26.41 0.09c6.57,0.08 9.06,0.21 9.06,-5.12 0,-7.82 -23.46,-2.4 -35.42,-4.09 -5.97,-0.84 -4.44,-2.5 -4.06,-7.05 15.18,-3.54 37.47,1.51 52.65,-2.02 0.51,-6.09 1.31,-3.12 -2.02,-8.1 -12.94,0 -29.32,1.59 -40.5,-1.01 0,-7.36 -1.13,-6.14 14.17,-6.07 9.58,0.04 11.43,1.43 16.2,-4.05 -1.19,-2.26 -1.69,-3.05 -3.04,-5.06l-76.94 0c1.95,2.92 4,4.14 6.09,7.07 1.6,2.24 4.17,5.89 5.56,8.61 3.01,5.89 5.55,14.41 5.55,22.79z"/>
   <path class="fil1" d="M707.94 92.13c-26.11,0 -22.23,-47.58 -3.04,-47.58 7.12,0 12.97,0.23 17.06,7.24 5.22,8.94 5.54,24.37 -0.24,32.86 -2.87,4.21 -7.14,7.48 -13.78,7.48zm-38.47 -29.36l0 10.12c0,44.55 76.94,49.19 76.94,-5.06 0,-40.1 -43.8,-47.61 -64.04,-30.63l-2.69 2.37c-5.93,5.68 -10.21,14.41 -10.21,23.2z"/>
   <path class="fil1" d="M539.88 40.49l0 56.69c0,5.58 3.6,10.12 10.12,10.12 22.32,0 -1.67,-60.74 22.27,-60.74 5.55,0 21.26,6.94 21.26,-6.07 0,-9.44 -17.43,-15.61 -27.22,-8.99 -3.54,2.39 -3.67,4.6 -7.21,6.97 -3.79,-16.28 -19.23,-10.61 -19.23,2.02z"/>
   <path class="fil0" d="M814.24 89.09c7.85,1.83 35.68,1.83 43.53,0 1.02,-4.26 1.02,-2.82 0,-7.09 -9.33,-2.17 -28.91,-1.01 -39.48,-1.01 -4.35,0 -4.05,3.69 -4.05,8.1z"/>
   <path class="fil0" d="M831.45 102.25c0,-2.73 -0.49,-2.79 -1.01,-5.06 -7.42,0 -14.89,0.08 -22.31,-0.03 -4.59,-0.07 -7.42,-0.92 -9.26,2.03 -2.12,3.38 0.05,6.19 3.25,6.82l22.4 0.03c1.98,0.04 6.92,0.49 6.92,-3.78z"/>
   <path class="fil0" d="M830.43 63.78c-1.66,6.27 0,3.29 0,7.09 6.72,1.57 11.5,1.57 18.22,0 2.02,-8.44 0.92,-8.1 -13.16,-8.1 -1.59,0 -3.84,0.54 -5.06,1.01z"/>
  </g>
 </g>
</svg>
