<?xml version="1.0" encoding="UTF-8"?>
<!DOCTYPE svg PUBLIC "-//W3C//DTD SVG 1.1//EN" "http://www.w3.org/Graphics/SVG/1.1/DTD/svg11.dtd">
<!-- Creator: CorelDRAW 2020 (64-Bit) -->
<svg xmlns="http://www.w3.org/2000/svg" xml:space="preserve" width="24.2146mm" height="4.2276mm" version="1.1" style="shape-rendering:geometricPrecision; text-rendering:geometricPrecision; image-rendering:optimizeQuality; fill-rule:evenodd; clip-rule:evenodd"
viewBox="0 0 345.08 60.25"
 xmlns:xlink="http://www.w3.org/1999/xlink"
 xmlns:xodm="http://www.corel.com/coreldraw/odm/2003">
 <defs>
  <style type="text/css">
   <![CDATA[
    .fil0 {fill:#004FA3}
    .fil1 {fill:#EA312C}
   ]]>
  </style>
 </defs>
 <g id="Layer_x0020_1">
  <metadata id="CorelCorpID_0Corel-Layer"/>
  <g id="_2409424476784">
   <path class="fil0" d="M326.75 18.98c-1.98,1.87 -3.17,4.66 -3.57,8.4 -0.39,3.65 -0.08,6.2 0.92,7.67 0.39,0.65 1.16,1.22 2.3,1.7 1.16,0.41 2.37,0.45 3.63,0.12 1.36,-0.4 2.63,-1.34 3.83,-2.8 1.19,-1.46 2.07,-3.81 2.64,-7.06 0.44,-2.92 0.28,-5.11 -0.48,-6.57 -0.67,-1.46 -1.59,-2.39 -2.74,-2.8 -1.16,-0.4 -2.37,-0.4 -3.65,0 -1.27,0.32 -2.22,0.77 -2.88,1.34zm-9.05 21.41c-1.48,-1.46 -2.41,-3.41 -2.77,-5.84 -0.35,-2.52 -0.33,-5.11 0.07,-7.79 0.33,-2.19 0.94,-4.38 1.84,-6.57 0.98,-2.19 2.22,-4.02 3.74,-5.48 2.47,-2.43 5.4,-3.85 8.79,-4.26 3.4,-0.49 6.36,-0.24 8.9,0.73 2.9,1.22 4.85,3.33 5.86,6.33 0.98,2.68 1.2,5.8 0.66,9.37 -0.39,2.6 -1.01,4.83 -1.86,6.69 -0.85,1.87 -1.81,3.45 -2.9,4.75 -2.35,2.68 -5.07,4.34 -8.17,4.99 -2.79,0.73 -5.51,0.77 -8.17,0.12 -2.59,-0.57 -4.59,-1.58 -5.99,-3.04zm-26.6 -13.02c-0.84,5.6 0.31,8.72 3.46,9.37 3.16,0.57 5.67,-0.2 7.52,-2.31 0.86,-0.89 1.6,-2.27 2.2,-4.14 0.62,-1.95 0.9,-3.85 0.86,-5.72 0.04,-1.87 -0.36,-3.53 -1.2,-4.99 -0.84,-1.46 -2.27,-2.19 -4.29,-2.19 -2.76,0 -4.78,1.01 -6.05,3.04 -1.28,2.03 -2.11,4.34 -2.5,6.93zm11.77 13.99l0.31 -2.07c-1.8,2.27 -4,3.69 -6.6,4.26 -2.52,0.57 -4.92,0.36 -7.21,-0.61 -2.29,-0.97 -4.13,-2.76 -5.52,-5.35 -1.3,-2.68 -1.63,-6.17 -0.99,-10.46 0.75,-5.03 2.5,-9.08 5.23,-12.17 2.83,-3.16 6.79,-4.75 11.91,-4.75 3.89,0 7.34,1.05 10.35,3.16 3.01,2.11 4.09,6 3.24,11.68l-2.57 17.16c-0.85,5.68 -3.09,9.53 -6.72,11.56 -3.64,2.11 -7.41,3.16 -11.3,3.16 -7.46,0 -11.56,-3.49 -12.3,-10.46l8.88 0c0.48,1.13 1.32,1.99 2.54,2.56 1.28,0.65 2.6,0.81 3.94,0.49 1.42,-0.24 2.75,-1.01 4,-2.31 1.33,-1.3 2.27,-3.24 2.82,-5.84zm-41.74 1.95l2.35 -15.7c0.47,-3.16 1.32,-5.8 2.52,-7.91 1.3,-2.19 2.86,-3.93 4.68,-5.23 1.72,-1.22 3.64,-2.11 5.76,-2.68 2.19,-0.57 4.38,-0.85 6.58,-0.85l1.22 0 -1.3 8.64 -2.8 0c-2.35,0 -4.18,0.57 -5.49,1.7 -1.31,1.14 -2.14,2.92 -2.51,5.36l-2.5 16.67 -8.52 0zm-7.91 -1.34c-1.84,0.89 -3.74,1.42 -5.71,1.58 -1.9,0.24 -3.58,0.36 -5.04,0.36 -2.92,0 -5.36,-0.77 -7.32,-2.31 -1.95,-1.62 -2.65,-4.26 -2.1,-7.91 0.51,-3.41 1.85,-5.84 4.01,-7.3 2.25,-1.46 4.95,-2.43 8.1,-2.92 0.4,0 0.9,-0.04 1.48,-0.12 0.59,-0.16 1.26,-0.28 2,-0.36 3.64,-0.49 5.58,-1.54 5.83,-3.16 0.18,-1.22 -0.35,-1.99 -1.6,-2.31 -1.16,-0.4 -2.26,-0.61 -3.32,-0.61 -1.14,0 -2.17,0.16 -3.12,0.49 -0.94,0.32 -1.68,0.93 -2.22,1.83l-8.15 0c0.7,-2.51 2.15,-4.58 4.34,-6.2 2.47,-1.87 5.73,-2.8 9.79,-2.8 4.54,0 7.83,0.77 9.87,2.31 2.11,1.62 2.94,3.89 2.51,6.81l-1.66 11.07c-0.49,3.24 -1.48,5.8 -2.98,7.67 -1.4,1.78 -2.98,3.08 -4.72,3.89zm0.3 -14.96c-1.22,0.57 -2.88,1.09 -4.98,1.58l-2.89 0.61c-1.52,0.41 -2.65,0.93 -3.4,1.58 -0.7,0.89 -1.12,1.79 -1.25,2.68 -0.18,1.22 0.04,2.19 0.66,2.92 0.63,0.65 1.64,0.97 3.02,0.97 2.27,0 4.15,-0.65 5.65,-1.95 1.49,-1.3 2.41,-3.08 2.75,-5.35l0.46 -3.04zm-37.45 -16.06l-1.79 11.92 12.13 -11.92 10.22 0 -13.42 12.41 8.69 19.95 -10.22 0 -4.32 -10.95c-0.89,-2.19 -1.8,-3.12 -2.74,-2.8 -0.94,0.33 -1.46,0.81 -1.56,1.46l-0.67 4.5 -1.17 7.79 -8.52 0 6.27 -41.85 4.38 0c1.13,0 2.05,0.41 2.74,1.22 0.69,0.81 0.95,1.74 0.8,2.8l-0.82 5.48zm-216.06 49.3c0,0 29.68,-29.99 69.25,-40.93l-15.71 -7.18c0,0 -29.37,8.81 -53.55,48.1z"/>
   <path class="fil1" d="M135.42 10.95l-0.87 5.81 -8.4 0 0.25 -1.68c0.17,-1.14 0.68,-2.11 1.53,-2.92 0.93,-0.81 2.01,-1.22 3.22,-1.22l4.26 0zm-1.21 8.09l-1.63 10.88c-0.86,5.76 -2.93,9.53 -6.2,11.32 -3.27,1.78 -6.69,2.68 -10.26,2.68 -3.46,-0.16 -6.52,-1.13 -9.17,-2.92 -2.25,-1.56 -3.19,-4.58 -2.83,-9.05l1.84 -12.9 8.55 0 -0.11 0.73 -1.78 11.86c-0.29,1.95 0.06,3.37 1.06,4.26 1,0.89 2.23,1.34 3.69,1.34 1.46,0 2.82,-0.45 4.09,-1.34 1.35,-0.89 2.17,-2.31 2.46,-4.26l1.89 -12.59 8.4 0zm-27.93 -2.28l0.24 -1.68c0.17,-1.14 0.68,-2.11 1.53,-2.92 0.93,-0.81 2.01,-1.22 3.22,-1.22l4.43 0 -0.87 5.81 -8.56 0zm67.49 25.21c-1.84,0.89 -3.74,1.42 -5.71,1.58 -1.9,0.24 -3.58,0.36 -5.04,0.36 -2.92,0 -5.36,-0.77 -7.32,-2.31 -1.95,-1.62 -2.65,-4.26 -2.1,-7.91 0.51,-3.41 1.85,-5.84 4.01,-7.3 2.25,-1.46 4.95,-2.43 8.1,-2.92 0.4,0 0.9,-0.04 1.48,-0.12 0.59,-0.16 1.26,-0.28 2,-0.36 3.64,-0.49 5.58,-1.54 5.83,-3.16 0.18,-1.22 -0.35,-1.99 -1.6,-2.31 -1.16,-0.4 -2.26,-0.61 -3.31,-0.61 -1.14,0 -2.17,0.16 -3.12,0.49 -0.94,0.32 -1.68,0.93 -2.22,1.83l-8.15 0c0.7,-2.51 2.15,-4.58 4.34,-6.2 2.47,-1.87 5.73,-2.8 9.79,-2.8 4.54,0 7.83,0.77 9.87,2.31 2.11,1.62 2.94,3.89 2.51,6.81l-1.66 11.07c-0.49,3.24 -1.48,5.8 -2.98,7.67 -1.4,1.78 -2.98,3.08 -4.72,3.89zm0.3 -14.97c-1.22,0.57 -2.88,1.1 -4.98,1.58l-2.89 0.61c-1.52,0.4 -2.65,0.93 -3.4,1.58 -0.7,0.89 -1.12,1.78 -1.25,2.67 -0.18,1.22 0.04,2.19 0.66,2.92 0.63,0.65 1.64,0.97 3.02,0.97 2.27,0 4.15,-0.65 5.65,-1.95 1.49,-1.3 2.41,-3.08 2.75,-5.35l0.46 -3.04zm-41.22 16.31l2.35 -15.7c0.47,-3.16 1.32,-5.8 2.52,-7.91 1.3,-2.19 2.86,-3.93 4.68,-5.23 1.72,-1.22 3.64,-2.11 5.76,-2.68 2.19,-0.57 4.38,-0.85 6.58,-0.85l1.22 0 -1.3 8.64 -2.8 0c-2.35,0 -4.18,0.57 -5.49,1.7 -1.31,1.14 -2.14,2.92 -2.51,5.35l-2.5 16.67 -8.52 0zm-59.89 -10.71l8.27 0c-0.16,1.62 0.26,2.84 1.28,3.65 1.09,0.81 2.66,1.22 4.68,1.22 1.46,0 2.76,-0.28 3.9,-0.85 1.06,-0.57 1.66,-1.34 1.81,-2.31 0.22,-1.46 -1.32,-2.56 -4.62,-3.29 -1.42,-0.24 -2.48,-0.49 -3.18,-0.73 -4.14,-1.05 -6.83,-2.31 -8.07,-3.77 -1.41,-1.46 -1.92,-3.41 -1.56,-5.84 0.46,-3.08 2.02,-5.64 4.68,-7.67 2.71,-1.87 6.02,-2.8 9.91,-2.8 4.22,0 7.44,0.93 9.68,2.8 2.05,2.03 2.91,4.66 2.59,7.91l-5.23 0c-1.54,0 -2.62,-0.69 -3.22,-2.07l-0.83 -0.97c-0.87,-0.73 -2.15,-1.09 -3.85,-1.09 -1.62,0 -2.87,0.24 -3.76,0.73 -0.8,0.49 -1.28,1.22 -1.42,2.19 -0.2,1.3 1.75,2.39 5.83,3.28 0.46,0.16 0.85,0.28 1.16,0.36 0.39,0.08 0.75,0.12 1.08,0.12 3.98,1.05 6.68,2.27 8.09,3.65 1.32,1.46 1.8,3.41 1.44,5.84 -0.54,3.57 -2.25,6.33 -5.13,8.27 -2.7,1.78 -6.49,2.68 -11.35,2.68 -4.62,0 -7.93,-0.93 -9.92,-2.8 -2.07,-1.86 -2.84,-4.58 -2.31,-8.15l0.05 -0.37zm125.04 10.71c-2.7,0.16 -5.62,0.12 -8.74,-0.12 -3.05,-0.24 -4.29,-2.23 -3.73,-5.96l3.04 -20.29 -3.65 0 0.26 -1.7c0.18,-1.22 0.74,-2.23 1.67,-3.04 0.79,-0.62 1.65,-0.98 2.59,-1.07l1.45 -9.66 4.38 0c1.05,0 1.93,0.41 2.62,1.22 0.69,0.81 0.95,1.78 0.78,2.92l-0.82 5.48 4.99 0 -0.26 1.7c-0.18,1.22 -0.74,2.23 -1.67,3.04 -0.92,0.73 -1.95,1.09 -3.08,1.09l-0.85 0 -2.7 18.01c-0.21,1.38 0.5,2.07 2.12,2.07l2.55 0 -0.95 6.33zm-176.91 -16.07c0,0 18.86,-19.73 60.01,-26.92 0,0 -37.57,-4.33 -72.76,19.15l12.74 7.77z"/>
  </g>
 </g>
</svg>
