<?xml version="1.0" encoding="utf-8"?>
<svg width="200px" height="68px" viewBox="0 0 200 68" version="1.1" xmlns:xlink="http://www.w3.org/1999/xlink" xmlns="http://www.w3.org/2000/svg">
  <defs>
    <path d="M0 0L199.42 0L199.42 67.573L0 67.573L0 0Z" id="path_1" />
    <clipPath id="mask_1">
      <use xlink:href="#path_1" />
    </clipPath>
  </defs>
  <g id="turktelekom_1">
    <path d="M0 0L199.42 0L199.42 67.573L0 67.573L0 0Z" id="Background" fill="none" fill-rule="evenodd" stroke="none" />
    <g clip-path="url(#mask_1)">
      <g id="Layer_x0020_1">
        <g id="_2385339988896">
          <path d="M0 7.56368e-07L0 17.7657L14.6605 8.50214L0 0L0 7.56368e-07Z" transform="translate(155.13208 4.949005)" id="Shape" fill="#05BEC8" fill-rule="evenodd" stroke="none" />
          <path d="M14.6605 7.56368e-07L14.6605 17.7657L0 8.50214L14.6605 0L14.6605 7.56368e-07Z" transform="translate(155.13208 4.949005)" id="Shape" fill="#E1DD00" fill-rule="evenodd" stroke="none" />
          <path d="M16.2554 13.3242L16.2554 5.32969C16.2554 4.88555 16.1941 4.50486 16.0714 4.18762C15.9487 3.93382 15.7647 3.68003 15.5806 3.48968C15.3353 3.29933 15.0899 3.17244 14.7832 3.04554C14.5378 2.98209 14.2311 2.91864 13.9858 2.91864C13.7404 2.91864 13.4337 2.98209 13.1884 3.04554C12.8817 3.17244 12.6363 3.29933 12.4523 3.48968C12.2069 3.61658 12.0229 3.87037 11.9002 4.18762C11.7162 4.50486 11.6548 4.8221 11.6548 5.26625L11.6548 13.3242L8.15838 13.3242L8.15838 5.32969C8.15838 4.88555 8.09703 4.50486 7.97435 4.18762C7.79032 3.93382 7.60631 3.68003 7.42228 3.48968C7.17691 3.29933 6.93155 3.17244 6.68618 3.04554C6.37948 2.98209 6.13411 2.91864 5.82741 2.91864C5.58204 2.91864 5.27534 2.98209 5.02998 3.04554C4.72328 3.17244 4.47791 3.29933 4.29388 3.48968C4.04851 3.68003 3.8645 3.93382 3.74181 4.18762C3.55778 4.50486 3.49644 4.88555 3.49644 5.32969L3.49644 13.3242L0 13.3242L0 0.126897L3.4351 0.126897L3.4351 1.33242C3.86448 0.888282 4.41655 0.57104 5.02997 0.317245C5.64338 0.126897 6.25679 0 6.93154 0C7.72897 0 8.40372 0.126897 9.01714 0.380692C9.63055 0.634487 10.1826 1.07863 10.612 1.64967C11.2254 1.07863 11.8388 0.634487 12.5136 0.380692C13.1883 0.126897 13.9244 0 14.8445 0C15.5193 0 16.194 0.0634502 16.8074 0.253795C17.3595 0.50759 17.8502 0.761384 18.2796 1.14208C18.8317 1.71312 19.2611 2.28415 19.4451 2.85519C19.6905 3.48968 19.8132 4.18762 19.8132 4.88555L19.8132 13.3242L16.2554 13.3242L16.2554 13.3242Z" transform="translate(134.82764 27.156097)" id="Shape" fill="#003462" fill-rule="evenodd" stroke="none" />
          <path d="M12.7589 17.956L8.40372 17.956L4.96863 12.4994L3.49644 14.0222L3.49644 17.956L0 17.956L0 1.71312L3.49644 0L3.49644 10.1518L8.15837 4.75866L12.3296 4.75866L7.36093 10.0884L12.7589 17.956Z" transform="translate(106.48804 22.524231)" id="Polygon" fill="#003462" fill-rule="evenodd" stroke="none" />
          <path d="M9.56942 5.30572C9.56942 5.01283 9.49891 4.77851 9.4284 4.60277C9.4284 4.42704 9.28738 4.19272 9.21687 3.9584C8.93484 3.60693 8.65282 3.31403 8.15927 3.07972C7.73623 2.8454 7.17218 2.72824 6.53761 2.72824C5.83254 2.72824 5.26849 2.8454 4.84545 3.07972C4.4224 3.31403 4.06987 3.60693 3.85835 3.9584C3.71733 4.19272 3.64683 4.42704 3.57632 4.60277C3.50581 4.77851 3.50581 5.01283 3.4353 5.30572L9.56942 5.30572L9.56942 5.30572ZM3.43511 7.74075C3.43511 8.62903 3.74182 9.32697 4.23255 9.89801C4.78462 10.4691 5.52071 10.7228 6.50217 10.7228C7.2996 10.7228 7.91302 10.5959 8.3424 10.4056C8.77179 10.2153 9.26252 9.89801 9.69191 9.45387L11.7775 11.4208C11.4708 11.738 11.1027 12.0553 10.7347 12.3091C10.3667 12.5629 9.99861 12.7532 9.56922 12.9436C9.13983 13.1339 8.71045 13.2608 8.15838 13.3877C7.66765 13.4511 7.11558 13.5146 6.50216 13.5146C5.64339 13.5146 4.84595 13.3877 4.10986 13.1973C3.31242 13.007 2.63767 12.6263 2.02426 12.1187C1.41084 11.6111 0.920115 10.9132 0.552071 10.0249C0.184022 9.20007 0 8.05799 0 6.72557C0 5.64694 0.184022 4.69521 0.490729 3.87038C0.736093 2.98209 1.16548 2.28416 1.71755 1.71312C2.26962 1.14208 2.88303 0.697937 3.61913 0.444143C4.35522 0.126897 5.214 0 6.13411 0C7.05423 0 7.91301 0.126897 8.71044 0.444143C9.44654 0.761388 10.1213 1.20553 10.612 1.77657C11.1641 2.34761 11.5321 2.98209 11.7775 3.74348C12.0842 4.56831 12.2069 5.39315 12.2069 6.28143L12.2069 7.74075L3.43509 7.74075L3.43511 7.74075Z" transform="translate(92.01172 27.156097)" id="Shape" fill="#003462" fill-rule="evenodd" stroke="none" />
          <path d="M4.15137 18.5271C3.40784 18.5271 2.78823 18.4636 2.29255 18.2098C1.7349 18.0195 1.30118 17.7022 0.991371 17.385C0.619604 17.0043 0.371761 16.6236 0.247843 16.1794C0.0619622 15.7353 0 15.2277 0 14.7836L0 2.6014L3.4698 0L3.53177 0L3.53177 14.5932C3.53177 14.9739 3.65569 15.2277 3.84157 15.4815C4.02745 15.6719 4.33726 15.7353 4.77098 15.7353L6.13412 15.7353L6.13412 18.527L4.15138 18.527L4.15137 18.5271Z" transform="translate(85.01892 21.953217)" id="Shape" fill="#003462" fill-rule="evenodd" stroke="none" />
          <path d="M9.56942 5.30572C9.49891 5.01283 9.49891 4.77851 9.4284 4.60277C9.35789 4.42704 9.28738 4.19272 9.14637 3.9584C8.93485 3.60693 8.65282 3.31403 8.15927 3.07972C7.73623 2.8454 7.17217 2.72824 6.4671 2.72824C5.83254 2.72824 5.26848 2.8454 4.84544 3.07972C4.3519 3.31403 4.06987 3.60693 3.78784 3.9584C3.71733 4.19272 3.57632 4.42704 3.57632 4.60277C3.50581 4.77851 3.4353 5.01283 3.4353 5.30572L9.56942 5.30572L9.56942 5.30572ZM3.43509 7.74075C3.43509 8.62903 3.68046 9.32697 4.23253 9.89801C4.7846 10.4691 5.5207 10.7228 6.50215 10.7228C7.29959 10.7228 7.85166 10.5959 8.34239 10.4056C8.77177 10.2153 9.20117 9.89801 9.69189 9.45387L11.7775 11.4208C11.4094 11.738 11.1027 12.0553 10.7347 12.3091C10.3666 12.5629 9.9986 12.7532 9.56922 12.9436C9.13983 13.1339 8.6491 13.2608 8.15837 13.3877C7.66764 13.4511 7.11557 13.5146 6.50216 13.5146C5.64338 13.5146 4.84594 13.3877 4.04851 13.1973C3.31242 13.007 2.57633 12.6263 2.02426 12.1187C1.41084 11.6111 0.920115 10.9132 0.552071 10.0249C0.184022 9.20007 0 8.05799 0 6.72557C0 5.64694 0.122685 4.69521 0.429386 3.87038C0.736093 2.98209 1.16548 2.28416 1.71755 1.71312C2.20828 1.14208 2.88303 0.697937 3.61913 0.444143C4.35522 0.126897 5.214 0 6.07277 0C7.05423 0 7.91301 0.126897 8.71044 0.444143C9.44654 0.761388 10.0599 1.20553 10.612 1.77657C11.1027 2.34761 11.5321 2.98209 11.7775 3.74348C12.0842 4.56831 12.2069 5.39315 12.2069 6.28143L12.2069 7.74075L3.4351 7.74075L3.43509 7.74075Z" transform="translate(70.17383 27.156097)" id="Shape" fill="#003462" fill-rule="evenodd" stroke="none" />
          <path d="M13.6791 3.10899L8.71044 3.10899L8.71044 18.0195L4.96863 18.0195L4.96863 3.10899L0 3.10899L0 0L13.6791 0L13.6791 3.10899Z" transform="translate(57.599487 22.460876)" id="Polygon" fill="#003462" fill-rule="evenodd" stroke="none" />
          <path d="M12.759 18.0195L8.40373 18.0195L4.96863 12.5629L3.49645 14.0856L3.49645 18.0195L0 18.0195L0 0L3.49645 0L3.49645 10.2153L8.15837 4.82211L12.3296 4.82211L7.36094 10.1518L12.759 18.0195Z" transform="translate(38.951538 22.460876)" id="Polygon" fill="#003462" fill-rule="evenodd" stroke="none" />
          <path d="M7.6063 3.42623C7.11558 2.98209 4.96864 3.74348 4.35522 4.37797C3.98718 4.69521 3.49645 5.01245 3.49645 5.52004L3.49645 13.4511L0 13.4511L0 0.253795L3.37376 0.253795L3.37376 1.52277C3.74181 1.14208 4.23254 0.697934 4.84595 0.380692C5.45936 0.126897 6.19545 0 6.93155 0C7.17692 0 7.36094 0 7.6063 0L7.6063 3.42623L7.6063 3.42623Z" transform="translate(28.830078 27.029266)" id="Shape" fill="#003462" fill-rule="evenodd" stroke="none" />
          <path d="M2.94437 3.17244L0 3.17244L0 0L2.94437 0L2.94437 3.17244Z" transform="translate(15.396606 23.539429)" id="Polygon" fill="#003462" fill-rule="evenodd" stroke="none" />
          <path d="M3.00572 3.17244L0 3.17244L0 0L3.00572 0L3.00572 3.17244Z" transform="translate(21.285156 23.539429)" id="Polygon" fill="#003462" fill-rule="evenodd" stroke="none" />
          <path d="M8.15837 13.1973L8.15837 11.9918C7.72898 12.436 7.17691 12.8167 6.5635 13.007C5.95009 13.2608 5.33668 13.3877 4.72327 13.3877C3.98717 13.3877 3.37376 13.2608 2.82169 13.0704C2.26962 12.8801 1.77889 12.5629 1.41085 12.1822C0.858776 11.6746 0.490728 11.1035 0.245364 10.4691C0.0613411 9.83456 0 9.20008 0 8.43869L0 3.02547e-06L3.49644 3.02547e-06L3.49644 7.99455C3.49644 8.43869 3.55778 8.81938 3.68047 9.13662C3.86449 9.45387 4.04851 9.70766 4.23254 9.89801C4.4779 10.0884 4.72326 10.2153 4.96863 10.2787C5.27533 10.3421 5.5207 10.4056 5.76606 10.4056C6.07277 10.4056 6.31813 10.3421 6.62484 10.2787C6.8702 10.2152 7.11557 10.0884 7.36093 9.89801C7.54495 9.70766 7.72898 9.45387 7.913 9.13662C8.03568 8.81938 8.09702 8.43869 8.09702 7.99455L8.09702 0L11.5935 0L11.5935 13.1973L8.15837 13.1973L8.15837 13.1973Z" transform="translate(14.047241 27.282898)" id="Shape" fill="#003462" fill-rule="evenodd" stroke="none" />
          <path d="M13.7404 3.10899L8.71044 3.10899L8.71044 18.0195L4.96863 18.0195L4.96863 3.10899L0 3.10899L0 0L13.7404 0L13.7404 3.10899Z" transform="translate(0 22.460876)" id="Polygon" fill="#003462" fill-rule="evenodd" stroke="none" />
          <path d="M6.93121 2.79175C9.26217 2.79175 11.1637 4.75866 11.1637 7.16971C11.1637 9.58077 9.26218 11.4842 6.93121 11.4842C4.66158 11.4842 2.76001 9.58076 2.76001 7.16971C2.76001 4.75866 4.66158 2.79175 6.93121 2.79175L6.93121 2.79175ZM6.93154 0C3.12839 0 0 3.17244 0 7.16971C0 11.1035 3.1284 14.3394 6.93154 14.3394C10.796 14.3394 13.8631 11.1035 13.8631 7.16971C13.8631 3.17244 10.796 0 6.93154 0L6.93154 0Z" transform="translate(118.94055 26.585083)" id="Shape" fill="#003462" fill-rule="evenodd" stroke="none" />
          <path d="M6.93121 2.79175C9.26217 2.79175 11.1637 4.75866 11.1637 7.16971C11.1637 9.58077 9.26218 11.4842 6.93121 11.4842C4.66158 11.4842 2.76001 9.58076 2.76001 7.16971C2.76001 4.75866 4.66158 2.79175 6.93121 2.79175L6.93121 2.79175ZM6.93154 0C3.12839 0 0 3.17244 0 7.16971C0 11.1035 3.1284 14.3394 6.93154 14.3394C10.796 14.3394 13.8631 11.1035 13.8631 7.16971C13.8631 3.17244 10.796 0 6.93154 0L6.93154 0Z" transform="translate(118.94055 26.585083)" id="Shape" fill="none" fill-rule="evenodd" stroke="none" />
          <path d="M0 0L0 7.48696L6.13412 3.55313L0 3.02547e-06L0 0Z" transform="translate(114.40137 45.238953)" id="Shape" fill="#003462" fill-rule="evenodd" stroke="none" />
          <path d="M0 0L0 18.527L15.274 8.81938L0 0L0 0Z" transform="translate(135.44092 49.04596)" id="Shape" fill="#48BED8" fill-rule="evenodd" stroke="none" />
          <path d="M0 0L0 9.20007L7.54497 4.37797L1.16999e-05 3.78184e-07L0 0Z" transform="translate(191.87512 0)" id="Shape" fill="#E83924" fill-rule="evenodd" stroke="none" />
          <path d="M0 0L0 8.69248L7.11557 4.12417L0 1.51274e-06L0 0Z" transform="translate(143.47705 13.831787)" id="Shape" fill="#003462" fill-rule="evenodd" stroke="none" />
          <path d="M14.6605 3.02547e-06L14.6605 17.7657L0 8.50214L14.6605 0L14.6605 3.02547e-06Z" transform="translate(162.06348 13.895294)" id="Shape" fill="#003462" fill-rule="evenodd" stroke="none" />
          <path d="M1.16999e-05 0L1.16999e-05 35.2775L29.0757 16.8774L0 0L1.16999e-05 0Z" transform="translate(169.79248 4.949005)" id="Shape" fill="#05BEC8" fill-rule="evenodd" stroke="none" />
          <path d="M6.93156 0L6.93156 17.7657L0 13.3877L0 4.06072L6.93156 0Z" transform="translate(169.79248 13.895294)" id="Polygon" fill="#0082CA" fill-rule="evenodd" stroke="none" />
          <path d="M7.29959 8.88283L0 4.25107L7.29959 0L14.6605 4.25107L7.29959 8.88283Z" transform="translate(155.13208 9.200165)" id="Polygon" fill="#0082CA" fill-rule="evenodd" stroke="none" />
        </g>
      </g>
    </g>
  </g>
</svg>